<svg width="34" height="33" viewBox="0 0 34 33" fill="none" xmlns="http://www.w3.org/2000/svg">
<path d="M31.7321 0.429688H2.27302C1.56456 0.429688 0.992188 1.00206 0.992188 1.71052V31.1696C0.992188 31.8781 1.56456 32.4505 2.27302 32.4505H31.7321C32.4406 32.4505 33.013 31.8781 33.013 31.1696V1.71052C33.013 1.00206 32.4406 0.429688 31.7321 0.429688ZM28.0337 9.77575H25.4761C23.4708 9.77575 23.0825 10.7284 23.0825 12.1293V15.2153H27.8696L27.2452 20.0464H23.0825V32.4505H18.0913V20.0504H13.9166V15.2153H18.0913V11.653C18.0913 7.51829 20.6169 5.26482 24.3073 5.26482C26.0765 5.26482 27.5934 5.39691 28.0377 5.45695V9.77575H28.0337Z" fill="#2091F9"/>
</svg>
