<svg width="33" height="33" viewBox="0 0 33 33" fill="none" xmlns="http://www.w3.org/2000/svg">
<path d="M31.2126 0.601074H1.75349C1.04503 0.601074 0.472656 1.17345 0.472656 1.88191V31.341C0.472656 32.0495 1.04503 32.6219 1.75349 32.6219H31.2126C31.9211 32.6219 32.4934 32.0495 32.4934 31.341V1.88191C32.4934 1.17345 31.9211 0.601074 31.2126 0.601074ZM27.5142 9.94714H24.9565C22.9512 9.94714 22.563 10.8998 22.563 12.3007V15.3867H27.3501L26.7257 20.2178H22.563V32.6219H17.5718V20.2218H13.397V15.3867H17.5718V11.8244C17.5718 7.68967 20.0974 5.43621 23.7878 5.43621C25.5569 5.43621 27.0739 5.5683 27.5182 5.62834V9.94714H27.5142Z" fill="white"/>
</svg>
