<svg width="33" height="33" viewBox="0 0 33 33" fill="none" xmlns="http://www.w3.org/2000/svg">
<path d="M31.197 0.601074H1.73786C1.0294 0.601074 0.457031 1.17345 0.457031 1.88191V31.341C0.457031 32.0495 1.0294 32.6219 1.73786 32.6219H31.197C31.9054 32.6219 32.4778 32.0495 32.4778 31.341V1.88191C32.4778 1.17345 31.9054 0.601074 31.197 0.601074ZM9.95519 27.8868H5.20411V12.6049H9.95519V27.8868ZM7.58165 10.5155C7.03701 10.5155 6.50459 10.354 6.05173 10.0514C5.59887 9.74882 5.24591 9.31874 5.03749 8.81555C4.82906 8.31236 4.77453 7.75867 4.88078 7.22448C4.98704 6.6903 5.24931 6.19962 5.63443 5.8145C6.01956 5.42938 6.51023 5.1671 7.04442 5.06085C7.5786 4.95459 8.13229 5.00913 8.63548 5.21755C9.13867 5.42598 9.56875 5.77894 9.87134 6.2318C10.1739 6.68466 10.3354 7.21707 10.3354 7.76172C10.3314 9.28271 9.09864 10.5155 7.58165 10.5155ZM27.7427 27.8868H22.9957V20.454C22.9957 18.6808 22.9636 16.4033 20.5261 16.4033C18.0565 16.4033 17.6762 18.3326 17.6762 20.3259V27.8868H12.9331V12.6049H17.4881V14.6942H17.5521C18.1845 13.4934 19.7335 12.2246 22.047 12.2246C26.8582 12.2246 27.7427 15.3907 27.7427 19.5053V27.8868Z" fill="white"/>
</svg>
