<svg width="35" height="28" viewBox="0 0 35 28" fill="none" xmlns="http://www.w3.org/2000/svg">
<path d="M34.1455 3.29662C32.9207 3.82496 31.5878 4.20521 30.2149 4.35331C31.6403 3.5065 32.7077 2.16869 33.2168 0.590866C31.8793 1.38654 30.414 1.94448 28.886 2.23994C28.2474 1.5572 27.475 1.0133 26.617 0.642129C25.7589 0.270959 24.8337 0.0804711 23.8988 0.0825361C20.1163 0.0825361 17.0744 3.14853 17.0744 6.91097C17.0744 7.43931 17.1384 7.96765 17.2425 8.47598C11.5788 8.17979 6.52753 5.47403 3.16936 1.33135C2.55746 2.37649 2.2368 3.5665 2.24075 4.77758C2.24075 7.14712 3.44553 9.23648 5.28273 10.4653C4.20004 10.4226 3.14271 10.125 2.19672 9.59671V9.68076C2.19672 12.9989 4.54225 15.7487 7.66827 16.3811C7.08133 16.5336 6.47753 16.6116 5.87111 16.6133C5.42682 16.6133 5.00655 16.5692 4.58227 16.5092C5.44683 19.215 7.96447 21.1802 10.9624 21.2443C8.61689 23.0815 5.67898 24.1622 2.48891 24.1622C1.91654 24.1622 1.3882 24.1421 0.839844 24.0781C3.86581 26.0194 7.45614 27.1401 11.3226 27.1401C23.8748 27.1401 30.7432 16.7413 30.7432 7.71549C30.7432 7.4193 30.7432 7.1231 30.7232 6.82691C32.0521 5.85428 33.2168 4.6495 34.1455 3.29662Z" fill="white"/>
</svg>
