<svg width="44" height="44" viewBox="0 0 44 44" fill="none" xmlns="http://www.w3.org/2000/svg">
<rect x="0.3125" y="0.5" width="43" height="43" rx="21.5" fill="#2091F9"/>
<path d="M17.9052 23.2387L20.5364 20.6075L14.7812 14.8616C14.3349 14.4153 13.5632 14.5362 13.2843 15.1127C12.6241 16.498 12.8659 18.1994 14.0095 19.3523L17.9052 23.2387ZM24.2089 21.5559C25.6314 22.216 27.6304 21.7511 29.1087 20.2728C30.8846 18.497 31.2286 15.9494 29.8618 14.5827C28.5044 13.2253 25.9568 13.56 24.1717 15.3358C22.6934 16.8141 22.2285 18.8131 22.8886 20.2356L14.4651 28.6592C14.2912 28.833 14.1935 29.0688 14.1935 29.3147C14.1935 29.5605 14.2912 29.7963 14.4651 29.9702C14.6389 30.144 14.8747 30.2417 15.1205 30.2417C15.3664 30.2417 15.6022 30.144 15.776 29.9702L21.5312 24.2336L27.2771 29.9795C27.3632 30.0655 27.4654 30.1338 27.5778 30.1804C27.6903 30.227 27.8108 30.251 27.9326 30.251C28.0543 30.251 28.1749 30.227 28.2873 30.1804C28.3998 30.1338 28.502 30.0655 28.5881 29.9795C28.6741 29.8934 28.7424 29.7912 28.789 29.6787C28.8356 29.5663 28.8596 29.4457 28.8596 29.324C28.8596 29.2022 28.8356 29.0817 28.789 28.9692C28.7424 28.8568 28.6741 28.7546 28.5881 28.6685L22.8422 22.9226L24.2089 21.5559Z" fill="white"/>
</svg>
