<svg width="33" height="33" viewBox="0 0 33 33" fill="none" xmlns="http://www.w3.org/2000/svg">
<path d="M31.7165 0.429688H2.25739C1.54893 0.429688 0.976562 1.00206 0.976562 1.71052V31.1696C0.976562 31.8781 1.54893 32.4505 2.25739 32.4505H31.7165C32.425 32.4505 32.9973 31.8781 32.9973 31.1696V1.71052C32.9973 1.00206 32.425 0.429688 31.7165 0.429688ZM10.4747 27.7154H5.72364V12.4335H10.4747V27.7154ZM8.10119 10.3441C7.55654 10.3441 7.02412 10.1826 6.57126 9.88002C6.11841 9.57743 5.76545 9.14735 5.55702 8.64416C5.34859 8.14097 5.29406 7.58728 5.40031 7.0531C5.50657 6.51891 5.76884 6.02824 6.15396 5.64311C6.53909 5.25799 7.02977 4.99572 7.56395 4.88946C8.09813 4.7832 8.65182 4.83774 9.15501 5.04617C9.6582 5.25459 10.0883 5.60755 10.3909 6.06041C10.6935 6.51327 10.855 7.04569 10.855 7.59033C10.851 9.11132 9.61817 10.3441 8.10119 10.3441ZM28.2623 27.7154H23.5152V20.2826C23.5152 18.5094 23.4832 16.2319 21.0456 16.2319C18.576 16.2319 18.1957 18.1612 18.1957 20.1545V27.7154H13.4527V12.4335H18.0076V14.5228H18.0717C18.7041 13.3221 20.2531 12.0532 22.5666 12.0532C27.3777 12.0532 28.2623 15.2193 28.2623 19.334V27.7154Z" fill="#2091F9"/>
</svg>
