<svg width="34" height="28" viewBox="0 0 34 28" fill="none" xmlns="http://www.w3.org/2000/svg">
<path d="M33.665 4.12524C32.4402 4.65358 31.1073 5.03382 29.7344 5.18192C31.1598 4.33511 32.2272 2.9973 32.7364 1.41948C31.3988 2.21515 29.9336 2.77309 28.4056 3.06855C27.7669 2.38581 26.9945 1.84191 26.1365 1.47074C25.2785 1.09957 24.3532 0.909084 23.4183 0.911149C19.6359 0.911149 16.5939 3.97714 16.5939 7.73958C16.5939 8.26792 16.6579 8.79627 16.762 9.3046C11.0983 9.0084 6.04707 6.30265 2.68889 2.15996C2.07699 3.2051 1.75634 4.39511 1.76028 5.6062C1.76028 7.97573 2.96507 10.0651 4.80226 11.2939C3.71957 11.2512 2.66224 10.9537 1.71626 10.4253V10.5094C1.71626 13.8275 4.06178 16.5773 7.18781 17.2097C6.60086 17.3622 5.99706 17.4402 5.39064 17.4419C4.94635 17.4419 4.52608 17.3978 4.1018 17.3378C4.96636 20.0436 7.484 22.0088 10.4819 22.0729C8.13642 23.9101 5.19851 24.9908 2.00845 24.9908C1.43607 24.9908 0.907731 24.9708 0.359375 24.9067C3.38534 26.848 6.97567 27.9687 10.8422 27.9687C23.3943 27.9687 30.2628 17.57 30.2628 8.5441C30.2628 8.24791 30.2628 7.95172 30.2428 7.65553C31.5716 6.68289 32.7364 5.47811 33.665 4.12524Z" fill="#2091F9"/>
</svg>
